<svg xmlns="http://www.w3.org/2000/svg" width="800" height="180" viewBox="0 0 800 180">
  <path d="M0,20 H60 V40 H20 V70 H50 V90 H20 V160 H0 Z" fill="#1A1A1A"/>
  <path d="M80,20 H140 V40 H100 V70 H130 V90 H100 V140 H140 V160 H80 Z" fill="#1A1A1A"/>
  <path d="M160,20 H190 L230,100 V20 H250 V160 H220 L180,80 V160 H160 Z" fill="#1A1A1A"/>
  <path d="M270,20 H350 V40 H330 V160 H290 V40 H270 Z" fill="#1A1A1A"/>
  
  <!-- Anchor -->
  <circle cx="390" cy="65" r="12" fill="#1A1A1A"/>
  <path d="M390,80 L390,140 M370,110 L410,110 M375,140 L405,140" stroke="#1A1A1A" stroke-width="15" fill="none"/>
  
  <path d="M430,20 H490 V160 H470 V100 H450 V160 H430 Z M450,40 V80 H470 V40 Z" fill="#1A1A1A"/>
  <path d="M510,20 H570 V160 H550 V100 H530 V160 H510 Z M530,40 V80 H550 V40 Z" fill="#1A1A1A"/>
  <path d="M590,20 H650 C670,20 680,30 680,50 V70 C680,85 670,90 660,93 C670,95 680,100 680,115 V130 C680,150 670,160 650,160 H590 Z M610,40 V80 H650 C655,80 660,75 660,70 V50 C660,45 655,40 650,40 Z M610,100 V140 H650 C655,140 660,135 660,130 V110 C660,105 655,100 650,100 Z" fill="#1A1A1A"/>
  <path d="M700,20 H780 V160 H760 V40 H720 V160 H700 Z" fill="#1A1A1A"/>
</svg>